<svg width="18" height="17" viewBox="0 0 18 17" fill="none" xmlns="http://www.w3.org/2000/svg">
<path d="M9.00201 4.14141C6.44808 4.14141 4.38806 6.08742 4.38806 8.5C4.38806 10.9126 6.44808 12.8586 9.00201 12.8586C11.5559 12.8586 13.616 10.9126 13.616 8.5C13.616 6.08742 11.5559 4.14141 9.00201 4.14141ZM9.00201 11.3336C7.35159 11.3336 6.00234 10.0629 6.00234 8.5C6.00234 6.93713 7.34757 5.66635 9.00201 5.66635C10.6564 5.66635 12.0017 6.93713 12.0017 8.5C12.0017 10.0629 10.6524 11.3336 9.00201 11.3336ZM14.8809 3.96313C14.8809 4.52834 14.399 4.97975 13.8047 4.97975C13.2064 4.97975 12.7285 4.52455 12.7285 3.96313C12.7285 3.40171 13.2104 2.9465 13.8047 2.9465C14.399 2.9465 14.8809 3.40171 14.8809 3.96313ZM17.9368 4.99492C17.8685 3.6331 17.5392 2.42681 16.4831 1.43295C15.431 0.439083 14.154 0.128026 12.7124 0.0597456C11.2267 -0.0199152 6.77334 -0.0199152 5.28756 0.0597456C3.84997 0.124233 2.57301 0.43529 1.5169 1.42915C0.460792 2.42302 0.135527 3.62931 0.063246 4.99113C-0.021082 6.39468 -0.021082 10.6015 0.063246 12.0051C0.131511 13.3669 0.460792 14.5732 1.5169 15.5671C2.57301 16.5609 3.84596 16.872 5.28756 16.9403C6.77334 17.0199 11.2267 17.0199 12.7124 16.9403C14.154 16.8758 15.431 16.5647 16.4831 15.5671C17.5352 14.5732 17.8645 13.3669 17.9368 12.0051C18.0211 10.6015 18.0211 6.39847 17.9368 4.99492ZM16.0173 13.511C15.7041 14.2545 15.0977 14.8273 14.3066 15.127C13.122 15.5708 10.3111 15.4684 9.00201 15.4684C7.69292 15.4684 4.87797 15.5671 3.69738 15.127C2.91032 14.8311 2.30396 14.2583 1.98673 13.511C1.5169 12.392 1.62532 9.73664 1.62532 8.5C1.62532 7.26336 1.52091 4.60421 1.98673 3.48895C2.29994 2.74545 2.9063 2.17265 3.69738 1.87298C4.88199 1.42915 7.69292 1.53157 9.00201 1.53157C10.3111 1.53157 13.126 1.43295 14.3066 1.87298C15.0937 2.16886 15.7001 2.74166 16.0173 3.48895C16.4871 4.608 16.3787 7.26336 16.3787 8.5C16.3787 9.73664 16.4871 12.3958 16.0173 13.511Z" fill="#fff"/>
</svg>
