<svg width="18" height="17" viewBox="0 0 18 17" fill="none" xmlns="http://www.w3.org/2000/svg">
<path d="M16.1498 4.2367C16.1612 4.42263 16.1612 4.6086 16.1612 4.79453C16.1612 10.4656 12.4493 17 5.66499 17C3.57488 17 1.63326 16.2961 0 15.0742C0.296966 15.1141 0.582471 15.1273 0.890863 15.1273C2.61546 15.1273 4.20305 14.45 5.47083 13.2945C3.84899 13.2547 2.48985 12.0195 2.02156 10.3195C2.25001 10.3593 2.47842 10.3859 2.71829 10.3859C3.0495 10.3859 3.38074 10.3328 3.6891 10.2399C1.99875 9.84138 0.730936 8.11484 0.730936 6.02968V5.97657C1.22204 6.29533 1.79315 6.49454 2.39844 6.52107C1.40478 5.75075 0.753788 4.43592 0.753788 2.94841C0.753788 2.15155 0.936496 1.42108 1.25631 0.783574C3.07232 3.3867 5.80203 5.08667 8.86293 5.27264C8.80583 4.95389 8.77155 4.62189 8.77155 4.28985C8.77155 1.92576 10.4162 0 12.4607 0C13.5228 0 14.4822 0.517967 15.1561 1.35469C15.9898 1.16876 16.7893 0.810147 17.4975 0.318752C17.2233 1.31487 16.6409 2.15159 15.8756 2.6828C16.618 2.58988 17.3376 2.35076 18 2.01876C17.4975 2.86873 16.8693 3.62573 16.1498 4.2367Z" fill="#fff"/>
</svg>
